<svg width="24" height="24" viewBox="0 0 24 24" fill="none" xmlns="http://www.w3.org/2000/svg">
  <!-- Firefox-style icon -->
  <circle cx="12" cy="12" r="11" fill="#FF7139" stroke="#E55100" stroke-width="1"/>
  <path d="M19.5 9.5c-1.2-1.8-3.2-3-5.5-3-1.2 0-2.3.3-3.3.8.5-.4 1.1-.8 1.8-.8 2.2 0 4 1.8 4 4 0 .7-.2 1.4-.5 2h3.5z" fill="#FF4F00"/>
  <path d="M16.5 11.5c0 2.5-2 4.5-4.5 4.5s-4.5-2-4.5-4.5 2-4.5 4.5-4.5 4.5 2 4.5 4.5z" fill="#FFA500"/>
  <circle cx="12" cy="11.5" r="2.5" fill="#FFD700"/>
  <path d="M8 6c1.5-1.5 3.5-2 5.5-1.5.8.2 1.5.6 2 1.2-1-.8-2.3-1.2-3.5-1.2-2.5 0-4.5 1.5-5.5 3.5.3-.7.8-1.3 1.5-2z" fill="#FF9800"/>
</svg>
