<?xml version="1.0" encoding="UTF-8"?>
<svg width="24" height="24" viewBox="0 0 24 24" fill="none" xmlns="http://www.w3.org/2000/svg">
  <defs>
    <linearGradient id="firefoxGradient" x1="0%" y1="0%" x2="100%" y2="100%">
      <stop offset="0%" style="stop-color:#FF7139;stop-opacity:1" />
      <stop offset="50%" style="stop-color:#FF4500;stop-opacity:1" />
      <stop offset="100%" style="stop-color:#E63946;stop-opacity:1" />
    </linearGradient>
    <linearGradient id="firefoxInner" x1="0%" y1="0%" x2="100%" y2="100%">
      <stop offset="0%" style="stop-color:#FFB84D;stop-opacity:1" />
      <stop offset="100%" style="stop-color:#FF7139;stop-opacity:1" />
    </linearGradient>
  </defs>
  <!-- Firefox main body -->
  <circle cx="12" cy="12" r="11" fill="url(#firefoxGradient)" stroke="#CC2936" stroke-width="0.5"/>
  <!-- Firefox fox silhouette -->
  <path d="M6 12c0-3.5 2.5-6.5 6-6.8 0.8-0.1 1.5 0.2 2.2 0.6 0.5-0.8 1.2-1.5 2-1.8-0.9-0.8-2.1-1.2-3.2-1 C8.5 3.2 6 7 6 12z" fill="url(#firefoxInner)"/>
  <path d="M18 12c0 3.3-2.7 6-6 6s-6-2.7-6-6c0-1.5 0.6-2.9 1.5-4 0.3 0.8 0.9 1.5 1.7 1.8C9.1 10.5 9 11.2 9 12c0 1.7 1.3 3 3 3s3-1.3 3-3c0-0.8-0.3-1.5-0.8-2 0.5-0.3 1-0.8 1.3-1.3C16.8 9.8 18 10.8 18 12z" fill="#FFF" opacity="0.8"/>
  <!-- Firefox eye/highlight -->
  <circle cx="10" cy="10" r="1.5" fill="#FFF" opacity="0.9"/>
  <circle cx="14" cy="11" r="0.8" fill="#FFE5CC" opacity="0.7"/>
</svg>
