<svg xmlns="http://www.w3.org/2000/svg" xmlns:xlink="http://www.w3.org/1999/xlink" width="24" height="24" viewBox="0 0 24 24" fill="none">
<path d="M21.85 11.1a8.96 8.96 0 0 0-1.9-3.7 11.2 11.2 0 0 0-.6-.8c-.3-.3-.5-.7-.8-1a9.3 9.3 0 0 0-6.5-2.6c-1.4 0-2.7.3-3.9.9a9.3 9.3 0 0 0-5.8 8.6c0 5.1 4.2 9.3 9.3 9.3 3.8 0 7-2.3 8.4-5.6.7-1.6 1-3.4.8-5.1zM12 21.3c-4.6 0-8.3-3.7-8.3-8.3 0-4.6 3.7-8.3 8.3-8.3 4.6 0 8.3 3.7 8.3 8.3 0 4.6-3.7 8.3-8.3 8.3z" fill="#FF7139"/>
<path d="M18.5 8.8c-.4-.8-1-1.5-1.7-2.1-.7-.6-1.5-1-2.4-1.3a8.8 8.8 0 0 0-2.4-.3c-1.7 0-3.3.6-4.5 1.7a6.5 6.5 0 0 0-1.9 4.6c0 .9.2 1.8.6 2.6.4.8 1 1.5 1.7 2.1.7.6 1.5 1 2.4 1.3.8.3 1.6.4 2.4.3 1.7 0 3.3-.6 4.5-1.7a6.5 6.5 0 0 0 1.9-4.6c0-.9-.2-1.8-.6-2.6z" fill="#FF5722"/>
<path d="M15.8 10.4c-.2-.4-.5-.7-.8-1-.3-.3-.7-.5-1.1-.6-.4-.1-.8-.2-1.2-.1-.6.1-1.1.4-1.5.8-.4.4-.7.9-.8 1.5-.1.6 0 1.2.3 1.7.3.5.7.9 1.2 1.1.5.2 1 .3 1.5.2.6-.1 1.1-.4 1.5-.8.4-.4.7-.9.8-1.5.1-.4 0-.8-.1-1.2z" fill="#FFFFFF"/>
</svg>